<svg width="510" height="370" viewBox="0 0 510 370" fill="none" xmlns="http://www.w3.org/2000/svg">
<g clip-path="url(#clip0_108_281)">
<path d="M416.076 342.701H102.587C99.6735 342.701 97.3035 340.331 97.3035 337.418C97.3035 334.504 99.6735 332.134 102.587 332.134H416.076C418.99 332.134 421.36 334.504 421.36 337.418C421.36 340.331 418.99 342.701 416.076 342.701Z" fill="#E6E6E6"/>
<path d="M346.51 370H172.153C169.24 370 166.87 367.63 166.87 364.716C166.87 361.803 169.24 359.433 172.153 359.433H346.51C349.423 359.433 351.793 361.803 351.793 364.716C351.793 367.63 349.423 370 346.51 370Z" fill="#E6E6E6"/>
<path d="M137.472 158.419L157.229 150.104L165.704 167.477L144.942 175.951L137.472 158.419Z" fill="#FFB6B6"/>
<path opacity="0.1" d="M137.472 158.419L157.229 150.104L165.704 167.477L144.942 175.951L137.472 158.419Z" fill="black"/>
<path d="M140.281 151.799L159.772 174.256C159.772 174.256 146.213 217.051 132.654 220.864C119.095 224.678 94.0963 243.321 94.0963 243.321L62.7416 222.983L77.9952 200.526C77.9952 200.526 114.858 150.104 124.604 150.104C134.349 150.104 140.281 151.799 140.281 151.799V151.799Z" fill="#6933DC"/>
<path d="M113.947 298.192H68.5761L65.7075 294.358L53.9961 278.701L51.3013 275.1C51.3013 275.1 41.1322 256.457 43.2508 239.508C45.3693 222.56 67.4024 218.746 67.4024 218.746H68.3091L95.2827 242.449L93.6726 264.507L102.215 278.701L113.947 298.192Z" fill="#2F2E41"/>
<path d="M77.8681 298.192H65.7076V280.185L77.8681 298.192Z" fill="#2F2E41"/>
<path d="M412.146 172.237L416.681 200.528L388.025 200.898V176.301L412.146 172.237Z" fill="#FFB6B6"/>
<path opacity="0.1" d="M412.146 172.237L416.681 200.528L388.025 200.898V176.301L412.146 172.237Z" fill="black"/>
<path d="M480.403 270.854L478.891 278.702L475.137 298.192H399.72C400.309 293.824 401.114 287.536 401.974 280.748C402.059 280.07 402.148 279.388 402.233 278.702C404.389 261.639 406.75 242.33 406.75 242.33L416.664 243.533L435.901 245.864L443.74 246.813L464.73 249.36C475.196 250.626 482.395 260.499 480.403 270.854Z" fill="#F2F2F2"/>
<path d="M340.155 270.854L338.642 278.702L334.888 298.192H259.471C260.06 293.824 260.865 287.536 261.725 280.748C261.81 280.07 261.899 279.388 261.984 278.702C264.141 261.639 266.501 242.33 266.501 242.33L276.416 243.533L295.652 245.864L303.491 246.813L324.481 249.36C334.947 250.626 342.146 260.499 340.155 270.854Z" fill="#F2F2F2"/>
<path d="M446.884 298.192H405.978C406.601 297.459 406.953 297.036 406.953 297.036L419.215 295.01L444.481 290.841C444.481 290.841 445.634 293.82 446.884 298.192V298.192Z" fill="#2F2E41"/>
<path d="M390.61 298.192H328.837C329.452 296.972 330.087 295.747 330.74 294.527C331.613 292.896 332.545 291.442 333.532 290.15C334.189 289.29 334.867 288.502 335.566 287.782C337.621 285.667 339.858 284.129 342.214 283.074C350.625 279.29 360.535 281.608 368.976 285.379C372.145 286.794 375.107 288.413 377.704 289.989C382.28 292.769 385.733 295.421 387.204 296.599C387.712 297.002 387.983 297.235 387.983 297.235L390.61 298.192V298.192Z" fill="#2F2E41"/>
<path d="M341.604 298.192H332.841L335.151 295.51L336.456 293.993L337.015 294.447L341.604 298.192Z" fill="#FFB6B6"/>
<path d="M449.875 298.192H374.42L377.704 289.989L382.217 278.702L384.483 273.032L382.611 265.062C382.611 265.062 381.687 264.41 380.28 263.236C375.268 259.084 364.111 248.389 366.675 237.407C369.59 224.907 373.251 200.548 374.026 195.298C374.124 194.641 374.175 194.285 374.175 194.285L385.064 191.616L385.424 191.527L386.594 191.239H415.762L437.214 205.768L437.21 205.92L435.901 245.864L435.342 262.952C435.342 262.952 434.668 265.418 434.829 269.248C434.935 271.876 435.431 275.142 436.804 278.702C438.257 282.485 440.702 286.595 444.714 290.608C447.744 293.637 449.214 296.188 449.875 298.192V298.192Z" fill="#6933DC"/>
<path d="M443.74 246.813C443.024 252.685 442.337 256.859 442.337 256.859L434.829 269.248L429.1 278.701L419.215 295.01L417.766 297.404L416.732 298.192H385.721L387.204 296.599L401.974 280.748L403.885 278.701L406.983 275.375L416.664 243.533L428.075 206.005C428.075 206.005 432.698 204.395 437.21 205.92C439.583 206.721 441.93 208.391 443.545 211.628C446.634 217.805 445.129 235.474 443.74 246.813Z" fill="#6933DC"/>
<path d="M389.187 245.788L380.28 263.236L372.386 278.702L368.976 285.379L367.632 288.015L356.12 298.192H330.053L334.35 292.854L335.947 290.862L342.214 283.074L345.731 278.702L355.277 266.829L357.823 212.756C358.245 203.787 365.079 196.537 373.973 195.307C373.992 195.304 374.01 195.301 374.026 195.298C376.916 194.718 381.509 194.548 385.064 197.984C385.187 198.099 385.305 198.222 385.424 198.349C386.022 198.98 386.585 199.722 387.102 200.59C387.153 200.675 387.204 200.764 387.25 200.853C387.399 201.124 387.543 201.421 387.674 201.738C392.212 212.306 389.187 245.788 389.187 245.788L389.187 245.788Z" fill="#6933DC"/>
<path d="M273.375 166.894L291.164 192.052L260.134 192.978L256.803 169.336L273.375 166.894Z" fill="#A0616A"/>
<path opacity="0.1" d="M273.375 166.894L291.164 192.052L260.134 192.978L256.803 169.336L273.375 166.894Z" fill="black"/>
<path d="M185.647 219.019C183.365 212.434 178.117 208.275 173.927 209.728C169.737 211.181 168.191 217.696 170.476 224.283C171.352 226.927 172.849 229.322 174.841 231.268L184.864 259.045L197.799 254.063L186.544 227.209C186.904 224.447 186.596 221.638 185.647 219.019Z" fill="#A0616A"/>
<path d="M306.062 206.2L306.037 231.839L303.652 241.309L298.745 260.787L295.173 278.702L292.512 292.048L291.563 296.815C290.847 297.294 290.135 297.752 289.424 298.192H227.447C223.926 296.078 221.956 294.434 221.956 294.434C221.956 294.434 222.93 293.519 224.045 292.048C225.926 289.566 228.201 285.498 226.807 281.612C226.515 280.799 226.439 279.807 226.528 278.702C227.095 271.405 234.748 259.067 234.748 259.067L233.163 240.754L232.468 232.729L237.367 193.599L253.337 184.315L256.094 184.048L283.309 182.578L294.558 183.226L295.071 183.366L306.062 206.2L306.062 206.2Z" fill="#CCCCCC"/>
<path d="M307.27 298.192H293.711L293.114 292.048L293.101 291.925L296.94 291.663L306.927 290.98L307.101 294.658L307.236 297.48L307.27 298.192Z" fill="#FFB6B6"/>
<path d="M310.608 212.399L316.304 245.817L311.656 278.701L310.931 283.82L309.652 292.857L309.258 295.637L309.27 295.938L309.368 298.192H293.267L292.673 292.048L292.623 291.497L291.411 278.913L291.39 278.701L288.818 252.016L293.86 232.728L294.233 231.309V231.305L296.426 198.281L294.727 183.273L294.71 183.133C294.744 183.154 294.774 183.175 294.808 183.196C294.897 183.251 294.986 183.307 295.071 183.366C304.969 189.645 310.867 200.662 310.608 212.399Z" fill="#CCCCCC"/>
<path d="M243.136 200.002L236.944 193.598C236.944 193.598 223.69 199.574 223.029 202.889C222.368 206.204 198.966 254.894 198.966 254.894L188.784 227.701L175.531 236.549C175.531 236.549 186.165 278.768 196.111 280.75C206.056 282.732 239.388 230.78 239.388 230.78L243.136 200.002H243.136Z" fill="#CCCCCC"/>
<path d="M396.959 184.828C408.337 184.828 417.56 175.605 417.56 164.227C417.56 152.849 408.337 143.626 396.959 143.626C385.581 143.626 376.358 152.849 376.358 164.227C376.358 175.605 385.581 184.828 396.959 184.828Z" fill="#FFB6B6"/>
<path d="M405.501 172.327C405.501 172.327 403.366 166.443 402.155 163.39C400.944 160.336 401.733 156.374 401.733 156.374C401.733 156.374 385.573 152.807 379.245 156.343C372.916 159.878 372.491 142.095 378.914 137.255C378.914 137.255 380.634 140.245 379.966 141.104L379.299 141.963C379.299 141.963 384.159 131.685 392.366 131.17C392.366 131.17 396.256 134.274 394.79 135.298C393.324 136.323 405.599 129.507 407.735 135.391C407.735 135.391 415.562 136.785 414.036 139.458L414.165 141.303C414.165 141.303 421.259 140.567 420.753 145.594C420.753 145.594 418.367 145.118 416.841 146.137C415.314 147.156 420.471 151.988 420.471 151.988C420.471 151.988 423.571 172.124 412.822 177.921C412.822 177.921 414.565 168.758 410.463 170.256C406.36 171.754 405.501 172.327 405.501 172.327V172.327Z" fill="#2F2E41"/>
<path d="M494.544 303.163H12.3771C5.55232 303.163 0 297.611 0 290.786C0 283.962 5.55232 278.409 12.3771 278.409H494.544C501.369 278.409 506.921 283.962 506.921 290.786C506.921 297.611 501.369 303.163 494.544 303.163Z" fill="#E6E6E6"/>
<path d="M303.24 240.682L302.302 284.428C302.212 288.663 298.753 292.048 294.517 292.048H214.045C209.909 292.048 206.495 288.816 206.27 284.686L203.878 240.941C203.634 236.48 207.186 232.729 211.654 232.729H295.455C299.821 232.729 303.333 236.317 303.24 240.682Z" fill="#3F3D56"/>
<path d="M478.1 240.682L477.162 284.428C477.072 288.663 473.613 292.048 469.377 292.048H388.905C384.769 292.048 381.355 288.816 381.129 284.686L378.738 240.941C378.494 236.48 382.046 232.729 386.513 232.729H470.314C474.68 232.729 478.193 236.317 478.1 240.682Z" fill="#3F3D56"/>
<path d="M173.33 168.979C183.964 168.979 192.584 160.359 192.584 149.726C192.584 139.093 183.964 130.473 173.33 130.473C162.697 130.473 154.077 139.093 154.077 149.726C154.077 160.359 162.697 168.979 173.33 168.979Z" fill="#FFB6B6"/>
<path d="M141.128 200.103L143.247 222.983L157.653 281.032L145.207 285.394L124.18 222.136L121.276 196.713L141.128 200.103Z" fill="#FFB6B6"/>
<path d="M135.398 240.682L134.46 284.428C134.37 288.663 130.911 292.048 126.675 292.048H46.2029C42.0674 292.048 38.6532 288.816 38.4275 284.686L36.036 240.941C35.7921 236.48 39.3437 232.729 43.8114 232.729H127.612C131.978 232.729 135.491 236.317 135.398 240.682H135.398Z" fill="#3F3D56"/>
<path d="M159.947 292.344C168.345 292.344 175.152 289.333 175.152 285.618C175.152 281.904 168.345 278.893 159.947 278.893C151.549 278.893 144.742 281.904 144.742 285.618C144.742 289.333 151.549 292.344 159.947 292.344Z" fill="#FFB6B6"/>
<path d="M111.257 203.601L119.943 157.308C119.943 157.308 144.094 153.918 144.942 161.969C145.789 170.019 144.336 209.363 144.336 209.363L111.257 203.601V203.601Z" fill="#6933DC"/>
<path d="M165.559 152.753C165.559 152.753 177.468 148.503 182.492 146.216C187.516 143.929 197.497 159.881 197.719 151.456C197.941 143.031 194.492 139.498 194.492 139.498C194.492 139.498 193.631 121.067 175.063 123.372C175.063 123.372 179.147 114.151 165.74 112.725C152.334 111.299 131.476 143.674 133.344 148.512C135.212 153.35 137.452 157.35 132.152 162.524C126.853 167.697 116.929 196.893 124.479 204.749C132.029 212.606 132.525 216.015 127.352 220.902C122.179 225.79 109.951 236.418 123.172 238.263C136.393 240.108 121.962 238.73 131.819 230.06C141.675 221.39 156.058 221.744 150.688 207.834C145.317 193.924 154.648 173.991 153.48 170.968C152.313 167.944 156.096 148.742 156.096 148.742C156.096 148.742 164.9 147.448 165.559 152.753V152.753Z" fill="#2F2E41"/>
<path d="M263.864 176C275.439 176 284.822 166.617 284.822 155.041C284.822 143.466 275.439 134.083 263.864 134.083C252.288 134.083 242.905 143.466 242.905 155.041C242.905 166.617 252.288 176 263.864 176Z" fill="#A0616A"/>
<path d="M265.536 126.864C264.93 127.218 264.117 126.683 263.923 126.008C263.729 125.333 263.955 124.617 264.18 123.951L265.31 120.602C266.112 118.227 266.964 115.768 268.701 113.96C271.322 111.231 275.489 110.537 279.239 111.04C284.056 111.686 288.808 114.294 291.047 118.607C293.287 122.92 292.334 128.938 288.287 131.628C294.054 138.239 296.065 145.606 295.747 154.373C295.43 163.14 285.876 171.208 279.646 177.384C278.254 176.541 276.989 172.588 277.754 171.152C278.52 169.716 277.423 168.053 278.371 166.73C279.318 165.407 280.111 167.513 279.153 166.198C278.549 165.368 280.908 163.459 280.01 162.963C275.663 160.56 274.218 155.143 271.488 150.995C268.196 145.991 262.561 142.602 256.597 142.04C253.312 141.73 249.843 142.291 247.15 144.198C244.458 146.106 242.714 149.514 243.339 152.753C241.722 151.112 240.917 148.705 241.22 146.421C241.524 144.137 242.929 142.024 244.919 140.862C243.709 136.861 244.746 132.258 247.554 129.162C250.362 126.066 261.754 126.593 265.853 127.408L265.536 126.864Z" fill="#2F2E41"/>
<path d="M266.173 142.162C271.603 142.748 275.523 147.451 278.834 151.795C280.742 154.299 282.741 157.063 282.693 160.211C282.645 163.393 280.517 166.123 279.5 169.138C277.838 174.068 279.458 179.933 283.414 183.31C279.505 184.052 275.279 181.121 274.604 177.199C273.818 172.634 277.279 168.228 276.869 163.614C276.508 159.549 273.304 156.421 270.581 153.381C267.858 150.342 265.3 146.309 266.553 142.425L266.173 142.162Z" fill="#2F2E41"/>
</g>
<path d="M114.859 94.03L116.511 94.457C118.265 94.911 119.318 96.7011 118.864 98.4549L118.426 100.148C117.972 101.903 116.182 102.956 114.428 102.502L112.776 102.075C111.022 101.62 109.969 99.8308 110.423 98.077L110.862 96.3828C111.315 94.629 113.106 93.5748 114.859 94.03ZM129.541 48.6737C133.831 49.7864 136.679 52.165 138.085 55.8119C139.206 58.6924 139.343 61.7707 138.495 65.0455C137.077 70.5211 133.248 75.0876 127.009 78.7427C124.834 80.0157 123.393 81.7812 122.688 84.0393C122.434 84.7869 122.186 85.6247 121.945 86.5572C121.491 88.311 119.701 89.3652 117.947 88.91L116.296 88.483C114.542 88.029 113.488 86.2389 113.942 84.4851C115.236 79.488 117.425 76.095 120.511 74.3037C123.843 72.3639 126.362 70.1409 128.066 67.6301C129.047 66.1676 129.769 64.5471 130.229 62.7675C130.704 60.9341 130.667 59.3886 130.119 58.1308C129.53 56.6835 128.345 55.8493 126.565 55.6305C124.905 55.4106 123.459 56.2249 122.227 58.0758C122.165 58.1659 122.104 58.2572 122.044 58.3508C121.167 59.7197 119.412 60.231 117.932 59.5582L116.482 58.8972C114.686 58.0782 114.008 55.8669 115.045 54.1879C116.075 52.5195 117.37 51.1366 118.931 50.0379C120.624 48.8504 122.716 48.2174 125.207 48.139C126.515 48.0864 127.96 48.2654 129.541 48.6737Z" fill="#6933DC"/>
<path d="M61.0648 147.711L63.3786 147.069C65.8353 146.388 68.3781 147.829 69.0589 150.285L69.7154 152.657C70.397 155.116 68.9563 157.658 66.4996 158.339L64.1858 158.981C61.7282 159.66 59.1862 158.221 58.5054 155.764L57.8481 153.391C57.1673 150.934 58.6072 148.39 61.0648 147.711ZM47.0435 82.1062C53.055 80.4435 58.1992 81.3385 62.479 84.7934C65.8718 87.5152 68.2045 91.1703 69.4749 95.7582C71.5994 103.429 70.1471 111.688 65.1147 120.532C63.3597 123.614 62.8467 126.779 63.5757 130.027C63.7923 131.117 64.0795 132.312 64.4419 133.618C65.1226 136.075 63.6828 138.619 61.2252 139.299L58.9128 139.94C56.4561 140.621 53.9119 139.181 53.2311 136.724C51.2921 129.724 51.5726 124.048 54.0722 119.695C56.7681 114.986 58.2739 110.505 58.5847 106.245C58.7506 103.773 58.4902 101.29 57.7984 98.7981C57.0873 96.2295 55.9557 94.3715 54.402 93.2248C52.6664 91.8751 50.6351 91.6923 48.3124 92.6778C46.1344 93.5779 44.945 95.5878 44.7459 98.7104C44.7337 98.8638 44.7238 99.0178 44.7169 99.1739C44.6107 101.46 42.8316 103.317 40.5546 103.539L38.3228 103.753C35.5579 104.019 33.175 101.801 33.2584 99.0252C33.3392 96.2675 33.9446 93.6708 35.0737 91.2337C36.3014 88.5953 38.4054 86.352 41.3859 84.5038C42.943 83.5193 44.8299 82.7208 47.0435 82.1062Z" fill="#DCDCF3"/>
<path d="M454.5 145.878L458.225 146.841C462.18 147.864 464.555 151.901 463.531 155.856L462.541 159.674C461.518 163.631 457.481 166.006 453.526 164.982L449.801 164.019C445.846 162.993 443.471 158.959 444.495 155.004L445.484 151.184C446.508 147.229 450.545 144.851 454.5 145.878ZM487.606 43.5976C497.281 46.1067 503.703 51.4706 506.874 59.6945C509.402 66.1902 509.711 73.1318 507.798 80.5167C504.6 92.8644 495.967 103.162 481.897 111.404C476.992 114.275 473.744 118.256 472.153 123.348C471.581 125.034 471.021 126.923 470.478 129.026C469.454 132.981 465.417 135.358 461.462 134.332L457.74 133.369C453.785 132.345 451.407 128.309 452.431 124.354C455.349 113.085 460.286 105.434 467.243 101.394C474.757 97.0199 480.438 92.0069 484.282 86.3449C486.493 83.0469 488.121 79.3927 489.158 75.3797C490.229 71.2454 490.147 67.7601 488.91 64.9238C487.582 61.6601 484.91 59.7789 480.897 59.2855C477.153 58.7895 473.892 60.6258 471.114 64.7998C470.974 65.0029 470.837 65.2087 470.702 65.4198C468.723 68.5067 464.766 69.6597 461.428 68.1426L458.159 66.6519C454.109 64.8051 452.579 59.8185 454.919 56.0324C457.241 52.27 460.162 49.1515 463.681 46.674C467.499 43.996 472.216 42.5686 477.834 42.3919C480.783 42.2732 484.042 42.6768 487.606 43.5976Z" fill="#DCDCF3"/>
<path d="M398.547 50.5949L400.253 50.5798C402.065 50.5644 403.545 52.0209 403.561 53.8325L403.575 55.5814C403.591 57.394 402.134 58.8745 400.323 58.8899L398.616 58.905C396.804 58.9193 395.324 57.4639 395.309 55.6523L395.294 53.9023C395.279 52.0907 396.735 50.6092 398.547 50.5949ZM400.989 2.98434C405.421 2.94866 408.787 4.50916 411.09 7.6678C412.918 10.1601 413.847 13.098 413.875 16.4808C413.922 22.1369 411.407 27.5386 406.326 32.6841C404.554 34.4766 403.62 36.5547 403.523 38.9185C403.471 39.7064 403.448 40.5797 403.457 41.5428C403.472 43.3544 402.016 44.836 400.204 44.8503L398.499 44.865C396.687 44.8805 395.206 43.4242 395.19 41.6126C395.147 36.4509 396.383 32.607 398.9 30.0782C401.616 27.342 403.474 24.5428 404.471 21.6763C405.04 20.0099 405.317 18.2578 405.301 16.4199C405.285 14.526 404.85 13.0425 403.995 11.9696C403.052 10.724 401.691 10.2249 399.915 10.4742C398.255 10.6914 397.069 11.8523 396.358 13.959C396.321 14.0621 396.286 14.166 396.253 14.2718C395.759 15.8212 394.196 16.7693 392.593 16.5025L391.021 16.2392C389.075 15.9129 387.847 13.9526 388.415 12.0623C388.977 10.1842 389.87 8.51319 391.094 7.04803C392.422 5.46277 394.279 4.30993 396.664 3.58951C397.914 3.2001 399.356 2.99903 400.989 2.98434Z" fill="#6933DC"/>
<defs>
<clipPath id="clip0_108_281">
<rect width="506.921" height="259.111" fill="white" transform="translate(0 110.889)"/>
</clipPath>
</defs>
</svg>
