<svg width="588" height="389" viewBox="0 0 588 389" fill="none" xmlns="http://www.w3.org/2000/svg">
<g clip-path="url(#clip0_102_289)">
<path d="M290.547 69.5783C300.384 69.5783 308.359 61.6039 308.359 51.767C308.359 41.93 300.384 33.9556 290.547 33.9556C280.711 33.9556 272.736 41.93 272.736 51.767C272.736 61.6039 280.711 69.5783 290.547 69.5783Z" fill="#FD6584"/>
<path d="M330.411 43.3329C329.908 41.6858 328.935 40.2216 327.611 39.1205C326.287 38.0195 324.67 37.3296 322.959 37.1358C322.919 37.1324 322.879 37.1324 322.839 37.1358C322.791 37.1208 322.742 37.1096 322.693 37.1024C316.729 36.3286 310.098 38.2098 305.635 42.3056C303.979 43.8021 302.654 45.6291 301.746 47.6689C300.919 46.5389 299.829 45.6276 298.57 45.0139C297.311 44.4002 295.922 44.1025 294.522 44.1467C292.717 44.2661 290.992 44.9393 289.584 46.0745C288.175 47.2098 287.151 48.7519 286.651 50.4906C286.596 50.703 286.611 50.9275 286.694 51.1307C286.777 51.3338 286.923 51.5047 287.111 51.618C287.647 52.0768 288.285 52.4015 288.972 52.5652C290.446 52.8787 291.934 53.1656 293.421 53.4257C296.33 53.9327 299.254 54.3441 302.193 54.6598C304.135 54.8666 306.08 55.0312 308.03 55.1535C312.059 55.4069 316.109 55.467 320.144 55.3402C322.146 55.2735 324.067 55.2068 325.895 54.3263C327.226 53.6713 328.365 52.6803 329.197 51.4512C329.98 50.2689 330.494 48.9293 330.704 47.5267C330.914 46.1241 330.814 44.6926 330.411 43.3329Z" fill="#DCDCF3"/>
<path d="M293.768 69.2821C293.734 68.5358 293.609 67.7965 293.395 67.0808C292.89 65.4339 291.915 63.9701 290.591 62.8693C289.266 61.7684 287.648 61.0783 285.937 60.8837C285.899 60.8803 285.861 60.8803 285.823 60.8837C285.773 60.8694 285.722 60.8582 285.67 60.8503C282.369 60.446 279.02 60.7903 275.871 61.8576C271.028 63.4786 266.778 66.7472 264.731 71.4168C263.902 70.2861 262.811 69.3743 261.551 68.7606C260.291 68.1469 258.9 67.8496 257.499 67.8946C255.694 68.014 253.97 68.6872 252.561 69.8224C251.152 70.9577 250.128 72.4998 249.628 74.2385C249.576 74.4509 249.593 74.6744 249.675 74.8768C249.758 75.0793 249.902 75.2504 250.088 75.3658C250.626 75.8234 251.263 76.148 251.949 76.3131C253.43 76.6266 254.911 76.9135 256.405 77.1736C259.314 77.6806 262.236 78.092 265.171 78.4077C271.134 79.0479 277.134 79.2752 283.128 79.0881C285.123 79.0214 287.051 78.9547 288.879 78.0742C290.209 77.4189 291.344 76.4279 292.174 75.1991C293.343 73.4565 293.904 71.3763 293.768 69.2821Z" fill="#DCDCF3"/>
<path d="M525.743 285.407C525.999 297.551 524.323 309.659 520.778 321.277C520.654 321.699 520.505 322.121 520.356 322.543H447.275C448.319 317.399 449.978 312.398 452.215 307.649C458.297 294.74 468.226 283.694 478.031 272.722C491.536 257.604 504.717 242.61 506.802 222.95C512.155 231.11 516.427 239.93 519.512 249.189C515.735 250.588 512.269 252.713 509.31 255.444C508.49 256.214 507.621 257.331 508.044 258.398C508.441 259.292 509.533 259.59 510.501 259.788C512.834 260.235 515.168 260.682 517.501 261.104C519.338 261.476 521.2 261.824 523.062 262.172C524.698 269.813 525.596 277.594 525.743 285.407Z" fill="#DCDCF3"/>
<path d="M587.132 277.364C575.415 284.488 567.968 295.51 561.886 307.847C556.594 309.053 551.708 311.621 547.712 315.294C546.868 316.064 545.999 317.181 546.446 318.248C546.818 319.142 547.935 319.44 548.903 319.639C551.212 320.085 553.57 320.532 555.879 320.954C555.656 321.476 555.432 322.022 555.209 322.543H477.758C481.274 317.801 485.168 313.352 489.401 309.237C490.319 308.319 491.263 307.45 492.231 306.556C502.104 297.634 513.44 290.479 525.743 285.407C545.124 277.304 566.318 274.528 587.132 277.364Z" fill="#DCDCF3"/>
<path d="M490.667 322.543H421.706C421.33 317.021 421.363 311.478 421.806 305.961C424.561 271.878 443.104 239.408 471.081 219.748C467.506 232.482 469.343 245.142 473.067 257.852C472.545 258.026 472.024 258.175 471.552 258.373C467.776 259.773 464.31 261.898 461.35 264.629C460.531 265.399 459.662 266.516 460.084 267.583C460.456 268.477 461.573 268.775 462.541 268.973C464.875 269.42 467.208 269.867 469.517 270.289C471.379 270.661 473.24 271.009 475.102 271.381C475.971 271.53 476.84 271.704 477.709 271.878C477.833 272.175 477.907 272.449 478.031 272.722C482.4 284.761 487.167 296.9 489.401 309.238C489.954 312.334 490.335 315.458 490.543 318.596C490.617 319.912 490.667 321.227 490.667 322.543Z" fill="#F2F2F2"/>
<path d="M114.825 285.407C115.081 297.551 113.405 309.659 109.86 321.277C109.736 321.699 109.587 322.121 109.438 322.543H36.3569C37.4016 317.399 39.0602 312.398 41.297 307.649C47.3787 294.74 57.3083 283.694 67.1137 272.722C80.6179 257.604 93.7993 242.61 95.8846 222.95C101.237 231.11 105.51 239.93 108.594 249.189C104.818 250.588 101.352 252.713 98.3918 255.444C97.5726 256.214 96.7037 257.331 97.1258 258.398C97.5229 259.292 98.6152 259.59 99.5833 259.788C101.917 260.235 104.25 260.682 106.584 261.104C108.421 261.476 110.282 261.824 112.144 262.172C113.781 269.813 114.678 277.594 114.825 285.407Z" fill="#DCDCF3"/>
<path d="M176.214 277.364C164.498 284.488 157.05 295.51 150.969 307.847C145.676 309.053 140.79 311.621 136.794 315.294C135.95 316.064 135.081 317.181 135.528 318.248C135.901 319.142 137.018 319.44 137.986 319.639C140.294 320.085 142.653 320.532 144.961 320.954C144.738 321.476 144.514 322.022 144.291 322.543H66.8407C70.3566 317.801 74.25 313.352 78.4831 309.237C79.4016 308.319 80.3449 307.45 81.313 306.556C91.186 297.634 102.523 290.479 114.825 285.407C134.206 277.304 155.4 274.528 176.214 277.364Z" fill="#F2F2F2"/>
<path d="M79.7491 322.543H10.7884C10.4119 317.021 10.4451 311.478 10.8878 305.961C13.6432 271.878 32.1866 239.408 60.1631 219.748C56.5884 232.482 58.4253 245.142 62.1489 257.852C61.6277 258.026 61.1064 258.175 60.6347 258.373C56.8581 259.773 53.392 261.898 50.4322 264.629C49.6129 265.399 48.7442 266.516 49.1661 267.583C49.5384 268.477 50.6555 268.775 51.6236 268.973C53.9571 269.42 56.2905 269.867 58.5991 270.289C60.4609 270.661 62.3227 271.009 64.1845 271.381C65.0533 271.53 65.9222 271.704 66.791 271.878C66.915 272.175 66.9896 272.449 67.1137 272.722C71.4827 284.761 76.2488 296.9 78.483 309.238C79.036 312.334 79.4173 315.458 79.625 318.596C79.6994 319.912 79.7491 321.227 79.7491 322.543Z" fill="#DCDCF3"/>
<path d="M336.479 293.591L398.097 299.061L398.757 299.121V36.2001C398.537 36.0466 398.317 35.8932 398.097 35.7398C385.255 26.7574 371.363 19.3782 356.731 13.7664L353.583 57.1929L353.296 61.1687L350.181 104.235L349.22 117.483L336.592 292.056L336.479 293.591Z" fill="#DCDCF3"/>
<path d="M184.099 31.3036C183.659 31.5838 183.219 31.864 182.778 32.1575V299.121L184.099 299.001L245.05 293.591L244.936 292.056L232.309 117.483L231.348 104.235L228.233 61.1685L227.946 57.1928L224.644 11.6516C210.404 16.5875 196.795 23.1836 184.099 31.3036Z" fill="#DCDCF3"/>
<path d="M182.778 32.1576C181.891 32.7312 181.004 33.3183 180.13 33.912V302.763C180.13 309.48 184.113 315.11 189.436 316.545C190.306 316.78 191.203 316.899 192.104 316.898H390.092C390.991 316.9 391.886 316.781 392.753 316.545C394.732 315.996 396.525 314.922 397.943 313.436C400.647 310.546 402.125 306.72 402.066 302.763V38.5882C400.972 37.781 399.871 36.9805 398.757 36.2C398.537 36.0466 398.317 35.8932 398.097 35.7398V302.763C398.098 303.628 397.995 304.491 397.79 305.331C396.849 309.3 393.747 312.209 390.092 312.209H192.104C187.688 312.209 184.099 307.973 184.099 302.763V31.3037C183.659 31.5839 183.219 31.864 182.778 32.1576Z" fill="#DCDCF3"/>
<path d="M400.081 57.1953H182.113V61.1704H400.081V57.1953Z" fill="#DCDCF3"/>
<path d="M333.324 6.48844C332.003 6.16157 330.682 5.85471 329.348 5.56787V113.507H333.324V6.48844Z" fill="#DCDCF3"/>
<path d="M252.848 4.22705C251.52 4.47387 250.193 4.72736 248.872 5.00086V113.507H252.848V4.22705Z" fill="#DCDCF3"/>
<path d="M139.378 309.94C139.378 312.221 139.815 314.482 140.666 316.598C140.993 317.418 141.383 318.212 141.833 318.973C142.415 319.964 143.089 320.898 143.848 321.761C145.524 323.671 147.588 325.201 149.902 326.249C152.217 327.297 154.729 327.839 157.269 327.838H418.302C423.047 327.838 427.598 325.953 430.953 322.598C434.308 319.243 436.193 314.692 436.193 309.947C436.193 305.202 434.308 300.651 430.953 297.296C427.598 293.941 423.047 292.056 418.302 292.056H157.269C152.527 292.061 147.98 293.946 144.626 297.299C141.272 300.652 139.385 305.198 139.378 309.94Z" fill="#DCDCF3"/>
<path d="M182.113 117.484L398.756 117.484V104.234L182.113 104.234V117.484Z" fill="#DCDCF3"/>
<path d="M299.71 107.547H281.159C281.159 105.614 281.927 103.76 283.294 102.393C284.66 101.027 286.514 100.259 288.447 100.259H292.422C293.379 100.259 294.327 100.447 295.211 100.814C296.095 101.18 296.898 101.717 297.575 102.393C298.252 103.07 298.789 103.874 299.155 104.758C299.521 105.642 299.71 106.59 299.71 107.547H299.71Z" fill="#DCDCF3"/>
<path d="M0 320.16C5.79504 327.027 12.063 333.48 18.7581 339.472H556.807C563.502 333.48 569.77 327.027 575.565 320.16H0Z" fill="#3F3D56"/>
<path d="M264.622 255.581V323.996H312.551V255.581C312.552 255.089 312.395 254.609 312.103 254.213C311.811 253.817 311.4 253.525 310.93 253.379C310.708 253.306 310.476 253.27 310.243 253.273H266.936C266.633 253.272 266.332 253.331 266.051 253.447C265.771 253.563 265.516 253.733 265.301 253.947C265.086 254.161 264.915 254.416 264.799 254.696C264.682 254.977 264.622 255.277 264.622 255.581ZM283.326 279.088C283.339 277.74 283.884 276.451 284.842 275.501C285.8 274.552 287.094 274.02 288.443 274.02C289.792 274.02 291.086 274.552 292.044 275.501C293.002 276.451 293.547 277.74 293.559 279.088V287.027C293.553 288.379 293.01 289.674 292.052 290.628C291.093 291.581 289.795 292.117 288.443 292.117C287.091 292.117 285.793 291.581 284.834 290.628C283.876 289.674 283.333 288.379 283.326 287.027V279.088Z" fill="#2F2E41"/>
<path d="M264.475 321.808V328.405C264.476 328.747 264.612 329.074 264.853 329.317C265.094 329.559 265.421 329.697 265.762 329.699H311.41C311.752 329.698 312.08 329.561 312.321 329.318C312.562 329.076 312.698 328.747 312.698 328.405V321.808H264.475Z" fill="#3F3D56"/>
<path d="M189.222 152.504V277.421C189.224 279.013 189.856 280.539 190.982 281.664C192.108 282.79 193.634 283.423 195.226 283.424H380.339C381.931 283.423 383.457 282.79 384.583 281.664C385.709 280.539 386.341 279.013 386.343 277.421V152.504C386.339 150.914 385.705 149.39 384.58 148.266C383.454 147.142 381.93 146.509 380.339 146.507H195.226C193.635 146.509 192.111 147.142 190.985 148.266C189.86 149.39 189.226 150.914 189.222 152.504Z" fill="#3F3D56"/>
<path d="M193.565 154.059V275.88C193.566 276.73 193.905 277.545 194.506 278.147C195.108 278.748 195.923 279.087 196.774 279.088H378.798C379.649 279.087 380.464 278.748 381.065 278.147C381.667 277.545 382.005 276.73 382.007 275.88V154.059C382.007 153.207 381.669 152.39 381.067 151.787C380.466 151.185 379.65 150.845 378.798 150.843H196.774C195.922 150.845 195.106 151.185 194.504 151.787C193.903 152.39 193.565 153.207 193.565 154.059Z" fill="#6933DC"/>
<path d="M230.681 331.253C230.866 331.486 231.102 331.673 231.37 331.801C231.638 331.93 231.931 331.995 232.229 331.994H340.521C340.818 331.994 341.11 331.927 341.377 331.8C341.645 331.672 341.88 331.487 342.067 331.257C342.253 331.027 342.386 330.758 342.456 330.47C342.525 330.182 342.53 329.882 342.469 329.592L340.788 321.608C340.719 321.282 340.569 320.979 340.352 320.726C340.135 320.473 339.859 320.279 339.548 320.16C339.322 320.072 339.082 320.026 338.84 320.027H233.903C233.661 320.026 233.421 320.072 233.196 320.16C232.885 320.279 232.608 320.473 232.392 320.726C232.175 320.979 232.025 321.282 231.955 321.608L230.274 329.592C230.214 329.882 230.22 330.182 230.29 330.469C230.361 330.756 230.494 331.024 230.681 331.253Z" fill="#2F2E41"/>
<path d="M335.061 323.466H337.746C337.925 323.466 338.071 323.32 338.071 323.14V321.791C338.071 321.611 337.925 321.465 337.746 321.465H335.061C334.882 321.465 334.736 321.611 334.736 321.791V323.14C334.736 323.32 334.882 323.466 335.061 323.466Z" fill="#3F3D56"/>
<path d="M328.391 323.466H331.075C331.255 323.466 331.401 323.32 331.401 323.14V321.791C331.401 321.611 331.255 321.465 331.075 321.465H328.391C328.211 321.465 328.065 321.611 328.065 321.791V323.14C328.065 323.32 328.211 323.466 328.391 323.466Z" fill="#3F3D56"/>
<path d="M321.72 323.466H324.404C324.584 323.466 324.73 323.32 324.73 323.14V321.791C324.73 321.611 324.584 321.465 324.404 321.465H321.72C321.54 321.465 321.394 321.611 321.394 321.791V323.14C321.394 323.32 321.54 323.466 321.72 323.466Z" fill="#3F3D56"/>
<path d="M315.049 323.466H317.733C317.913 323.466 318.059 323.32 318.059 323.14V321.791C318.059 321.611 317.913 321.465 317.733 321.465H315.049C314.869 321.465 314.724 321.611 314.724 321.791V323.14C314.724 323.32 314.869 323.466 315.049 323.466Z" fill="#3F3D56"/>
<path d="M308.379 323.466H311.063C311.242 323.466 311.388 323.32 311.388 323.14V321.791C311.388 321.611 311.242 321.465 311.063 321.465H308.379C308.199 321.465 308.053 321.611 308.053 321.791V323.14C308.053 323.32 308.199 323.466 308.379 323.466Z" fill="#3F3D56"/>
<path d="M301.708 323.466H304.392C304.572 323.466 304.718 323.32 304.718 323.14V321.791C304.718 321.611 304.572 321.465 304.392 321.465H301.708C301.528 321.465 301.382 321.611 301.382 321.791V323.14C301.382 323.32 301.528 323.466 301.708 323.466Z" fill="#3F3D56"/>
<path d="M295.037 323.466H297.721C297.901 323.466 298.047 323.32 298.047 323.14V321.791C298.047 321.611 297.901 321.465 297.721 321.465H295.037C294.857 321.465 294.711 321.611 294.711 321.791V323.14C294.711 323.32 294.857 323.466 295.037 323.466Z" fill="#3F3D56"/>
<path d="M288.366 323.466H291.05C291.23 323.466 291.376 323.32 291.376 323.14V321.791C291.376 321.611 291.23 321.465 291.05 321.465H288.366C288.186 321.465 288.041 321.611 288.041 321.791V323.14C288.041 323.32 288.186 323.466 288.366 323.466Z" fill="#3F3D56"/>
<path d="M281.696 323.466H284.38C284.559 323.466 284.705 323.32 284.705 323.14V321.791C284.705 321.611 284.559 321.465 284.38 321.465H281.696C281.516 321.465 281.37 321.611 281.37 321.791V323.14C281.37 323.32 281.516 323.466 281.696 323.466Z" fill="#3F3D56"/>
<path d="M275.025 323.466H277.709C277.889 323.466 278.035 323.32 278.035 323.14V321.791C278.035 321.611 277.889 321.465 277.709 321.465H275.025C274.845 321.465 274.699 321.611 274.699 321.791V323.14C274.699 323.32 274.845 323.466 275.025 323.466Z" fill="#3F3D56"/>
<path d="M268.354 323.466H271.038C271.218 323.466 271.364 323.32 271.364 323.14V321.791C271.364 321.611 271.218 321.465 271.038 321.465H268.354C268.174 321.465 268.028 321.611 268.028 321.791V323.14C268.028 323.32 268.174 323.466 268.354 323.466Z" fill="#3F3D56"/>
<path d="M261.683 323.466H264.367C264.547 323.466 264.693 323.32 264.693 323.14V321.791C264.693 321.611 264.547 321.465 264.367 321.465H261.683C261.503 321.465 261.358 321.611 261.358 321.791V323.14C261.358 323.32 261.503 323.466 261.683 323.466Z" fill="#3F3D56"/>
<path d="M255.013 323.466H257.697C257.877 323.466 258.022 323.32 258.022 323.14V321.791C258.022 321.611 257.877 321.465 257.697 321.465H255.013C254.833 321.465 254.687 321.611 254.687 321.791V323.14C254.687 323.32 254.833 323.466 255.013 323.466Z" fill="#3F3D56"/>
<path d="M248.342 323.466H251.026C251.206 323.466 251.352 323.32 251.352 323.14V321.791C251.352 321.611 251.206 321.465 251.026 321.465H248.342C248.162 321.465 248.016 321.611 248.016 321.791V323.14C248.016 323.32 248.162 323.466 248.342 323.466Z" fill="#3F3D56"/>
<path d="M241.671 323.466H244.355C244.535 323.466 244.681 323.32 244.681 323.14V321.791C244.681 321.611 244.535 321.465 244.355 321.465H241.671C241.491 321.465 241.345 321.611 241.345 321.791V323.14C241.345 323.32 241.491 323.466 241.671 323.466Z" fill="#3F3D56"/>
<path d="M235 323.466H237.684C237.864 323.466 238.01 323.32 238.01 323.14V321.791C238.01 321.611 237.864 321.465 237.684 321.465H235C234.821 321.465 234.675 321.611 234.675 321.791V323.14C234.675 323.32 234.821 323.466 235 323.466Z" fill="#3F3D56"/>
<path d="M335.14 326.801H337.824C338.004 326.801 338.15 326.655 338.15 326.476V325.126C338.15 324.946 338.004 324.8 337.824 324.8H335.14C334.96 324.8 334.815 324.946 334.815 325.126V326.476C334.815 326.655 334.96 326.801 335.14 326.801Z" fill="#3F3D56"/>
<path d="M328.47 326.801H331.154C331.334 326.801 331.479 326.655 331.479 326.476V325.126C331.479 324.946 331.334 324.8 331.154 324.8H328.47C328.29 324.8 328.144 324.946 328.144 325.126V326.476C328.144 326.655 328.29 326.801 328.47 326.801Z" fill="#3F3D56"/>
<path d="M321.799 326.801H324.483C324.663 326.801 324.809 326.655 324.809 326.476V325.126C324.809 324.946 324.663 324.8 324.483 324.8H321.799C321.619 324.8 321.473 324.946 321.473 325.126V326.476C321.473 326.655 321.619 326.801 321.799 326.801Z" fill="#3F3D56"/>
<path d="M315.128 326.801H317.812C317.992 326.801 318.138 326.655 318.138 326.476V325.126C318.138 324.946 317.992 324.8 317.812 324.8H315.128C314.948 324.8 314.802 324.946 314.802 325.126V326.476C314.802 326.655 314.948 326.801 315.128 326.801Z" fill="#3F3D56"/>
<path d="M308.457 326.801H311.141C311.321 326.801 311.467 326.655 311.467 326.476V325.126C311.467 324.946 311.321 324.8 311.141 324.8H308.457C308.278 324.8 308.132 324.946 308.132 325.126V326.476C308.132 326.655 308.278 326.801 308.457 326.801Z" fill="#3F3D56"/>
<path d="M301.787 326.801H304.471C304.651 326.801 304.796 326.655 304.796 326.476V325.126C304.796 324.946 304.651 324.8 304.471 324.8H301.787C301.607 324.8 301.461 324.946 301.461 325.126V326.476C301.461 326.655 301.607 326.801 301.787 326.801Z" fill="#3F3D56"/>
<path d="M295.116 326.801H297.8C297.98 326.801 298.126 326.655 298.126 326.476V325.126C298.126 324.946 297.98 324.8 297.8 324.8H295.116C294.936 324.8 294.79 324.946 294.79 325.126V326.476C294.79 326.655 294.936 326.801 295.116 326.801Z" fill="#3F3D56"/>
<path d="M288.445 326.801H291.129C291.309 326.801 291.455 326.655 291.455 326.476V325.126C291.455 324.946 291.309 324.8 291.129 324.8H288.445C288.265 324.8 288.119 324.946 288.119 325.126V326.476C288.119 326.655 288.265 326.801 288.445 326.801Z" fill="#3F3D56"/>
<path d="M281.774 326.801H284.458C284.638 326.801 284.784 326.655 284.784 326.476V325.126C284.784 324.946 284.638 324.8 284.458 324.8H281.774C281.595 324.8 281.449 324.946 281.449 325.126V326.476C281.449 326.655 281.595 326.801 281.774 326.801Z" fill="#3F3D56"/>
<path d="M275.104 326.801H277.788C277.968 326.801 278.113 326.655 278.113 326.476V325.126C278.113 324.946 277.968 324.8 277.788 324.8H275.104C274.924 324.8 274.778 324.946 274.778 325.126V326.476C274.778 326.655 274.924 326.801 275.104 326.801Z" fill="#3F3D56"/>
<path d="M268.433 326.801H271.117C271.297 326.801 271.443 326.655 271.443 326.476V325.126C271.443 324.946 271.297 324.8 271.117 324.8H268.433C268.253 324.8 268.107 324.946 268.107 325.126V326.476C268.107 326.655 268.253 326.801 268.433 326.801Z" fill="#3F3D56"/>
<path d="M261.762 326.801H264.446C264.626 326.801 264.772 326.655 264.772 326.476V325.126C264.772 324.946 264.626 324.8 264.446 324.8H261.762C261.582 324.8 261.437 324.946 261.437 325.126V326.476C261.437 326.655 261.582 326.801 261.762 326.801Z" fill="#3F3D56"/>
<path d="M255.091 326.801H257.775C257.955 326.801 258.101 326.655 258.101 326.476V325.126C258.101 324.946 257.955 324.8 257.775 324.8H255.091C254.912 324.8 254.766 324.946 254.766 325.126V326.476C254.766 326.655 254.912 326.801 255.091 326.801Z" fill="#3F3D56"/>
<path d="M248.421 326.801H251.105C251.285 326.801 251.43 326.655 251.43 326.476V325.126C251.43 324.946 251.285 324.8 251.105 324.8H248.421C248.241 324.8 248.095 324.946 248.095 325.126V326.476C248.095 326.655 248.241 326.801 248.421 326.801Z" fill="#3F3D56"/>
<path d="M241.75 326.801H244.434C244.614 326.801 244.76 326.655 244.76 326.476V325.126C244.76 324.946 244.614 324.8 244.434 324.8H241.75C241.57 324.8 241.424 324.946 241.424 325.126V326.476C241.424 326.655 241.57 326.801 241.75 326.801Z" fill="#3F3D56"/>
<path d="M235.079 326.801H237.763C237.943 326.801 238.089 326.655 238.089 326.476V325.126C238.089 324.946 237.943 324.8 237.763 324.8H235.079C234.899 324.8 234.754 324.946 234.754 325.126V326.476C234.754 326.655 234.899 326.801 235.079 326.801Z" fill="#3F3D56"/>
<path d="M279.773 330.804H305.805C305.985 330.804 306.131 330.658 306.131 330.478V329.128C306.131 328.948 305.985 328.802 305.805 328.802H279.773C279.593 328.802 279.448 328.948 279.448 329.128V330.478C279.448 330.658 279.593 330.804 279.773 330.804Z" fill="#3F3D56"/>
<path d="M205.92 167.625H376.24C376.417 167.621 376.586 167.548 376.709 167.421C376.833 167.294 376.903 167.124 376.903 166.947C376.903 166.77 376.833 166.6 376.709 166.474C376.586 166.347 376.417 166.274 376.24 166.27H205.92C205.743 166.274 205.575 166.347 205.451 166.474C205.327 166.6 205.258 166.77 205.258 166.947C205.258 167.124 205.327 167.294 205.451 167.421C205.575 167.548 205.743 167.621 205.92 167.625Z" fill="#3F3D56"/>
<path d="M364.646 162.812C366.838 162.812 368.616 160.995 368.616 158.754C368.616 156.513 366.838 154.696 364.646 154.696C362.454 154.696 360.677 156.513 360.677 158.754C360.677 160.995 362.454 162.812 364.646 162.812Z" fill="#3F3D56"/>
<path d="M350.934 162.812C353.126 162.812 354.903 160.995 354.903 158.754C354.903 156.513 353.126 154.696 350.934 154.696C348.742 154.696 346.964 156.513 346.964 158.754C346.964 160.995 348.742 162.812 350.934 162.812Z" fill="#3F3D56"/>
<path d="M337.221 162.812C339.414 162.812 341.191 160.995 341.191 158.754C341.191 156.513 339.414 154.696 337.221 154.696C335.029 154.696 333.252 156.513 333.252 158.754C333.252 160.995 335.029 162.812 337.221 162.812Z" fill="#3F3D56"/>
<path d="M213.45 156.44C213.45 156.536 213.468 156.631 213.505 156.72C213.541 156.809 213.594 156.89 213.662 156.958C213.729 157.026 213.81 157.08 213.898 157.117C213.987 157.154 214.082 157.174 214.178 157.174H223.917C224.109 157.169 224.292 157.09 224.427 156.952C224.562 156.814 224.637 156.629 224.637 156.437C224.637 156.244 224.562 156.059 224.427 155.922C224.292 155.784 224.109 155.704 223.917 155.7H214.178C213.983 155.702 213.798 155.781 213.661 155.92C213.525 156.059 213.449 156.246 213.45 156.44Z" fill="#3F3D56"/>
<path d="M213.45 159.208C213.45 159.304 213.468 159.399 213.505 159.488C213.541 159.577 213.594 159.658 213.662 159.726C213.729 159.794 213.81 159.848 213.898 159.885C213.987 159.923 214.082 159.942 214.178 159.942H223.917C224.109 159.938 224.293 159.858 224.428 159.721C224.562 159.583 224.638 159.398 224.638 159.205C224.638 159.012 224.562 158.827 224.428 158.69C224.293 158.552 224.109 158.472 223.917 158.468H214.178C213.983 158.47 213.798 158.55 213.661 158.688C213.525 158.827 213.449 159.014 213.45 159.208Z" fill="#3F3D56"/>
<path d="M213.45 161.97C213.449 162.165 213.525 162.352 213.661 162.49C213.798 162.629 213.983 162.708 214.178 162.711H223.917C224.109 162.706 224.292 162.626 224.427 162.489C224.562 162.351 224.637 162.166 224.637 161.973C224.637 161.781 224.562 161.596 224.427 161.458C224.292 161.32 224.109 161.241 223.917 161.236H214.178C214.082 161.237 213.987 161.256 213.898 161.293C213.81 161.33 213.729 161.384 213.662 161.453C213.594 161.521 213.541 161.602 213.505 161.69C213.468 161.779 213.45 161.874 213.45 161.97Z" fill="#3F3D56"/>
<path d="M216.46 183.365H212.961C211.9 183.365 211.04 184.226 211.04 185.287C211.04 186.348 211.9 187.208 212.961 187.208H216.46C217.521 187.208 218.381 186.348 218.381 185.287C218.381 184.226 217.521 183.365 216.46 183.365Z" fill="#E6E6E6"/>
<path d="M256.485 183.365H252.985C251.924 183.365 251.064 184.226 251.064 185.287C251.064 186.348 251.924 187.208 252.985 187.208H256.485C257.546 187.208 258.406 186.348 258.406 185.287C258.406 184.226 257.546 183.365 256.485 183.365Z" fill="#E6E6E6"/>
<path d="M267.825 183.365H264.325C263.264 183.365 262.404 184.226 262.404 185.287C262.404 186.348 263.264 187.208 264.325 187.208H267.825C268.886 187.208 269.746 186.348 269.746 185.287C269.746 184.226 268.886 183.365 267.825 183.365Z" fill="#E6E6E6"/>
<path d="M245.598 183.045H223.848C222.787 183.045 221.926 183.905 221.926 184.966C221.926 186.027 222.787 186.887 223.848 186.887H245.598C246.659 186.887 247.519 186.027 247.519 184.966C247.519 183.905 246.659 183.045 245.598 183.045Z" fill="#E6E6E6"/>
<path d="M298.964 183.045H277.213C276.152 183.045 275.292 183.905 275.292 184.966C275.292 186.027 276.152 186.887 277.213 186.887H298.964C300.025 186.887 300.885 186.027 300.885 184.966C300.885 183.905 300.025 183.045 298.964 183.045Z" fill="#E6E6E6"/>
<path d="M227.134 192.037H223.634C222.573 192.037 221.713 192.897 221.713 193.958C221.713 195.02 222.573 195.88 223.634 195.88H227.134C228.195 195.88 229.055 195.02 229.055 193.958C229.055 192.897 228.195 192.037 227.134 192.037Z" fill="#E6E6E6"/>
<path d="M267.158 192.037H263.658C262.597 192.037 261.737 192.897 261.737 193.958C261.737 195.02 262.597 195.88 263.658 195.88H267.158C268.219 195.88 269.079 195.02 269.079 193.958C269.079 192.897 268.219 192.037 267.158 192.037Z" fill="#E6E6E6"/>
<path d="M278.498 192.037H274.999C273.938 192.037 273.078 192.897 273.078 193.958C273.078 195.02 273.938 195.88 274.999 195.88H278.498C279.559 195.88 280.419 195.02 280.419 193.958C280.419 192.897 279.559 192.037 278.498 192.037Z" fill="#E6E6E6"/>
<path d="M256.271 191.717H234.521C233.46 191.717 232.6 192.577 232.6 193.638C232.6 194.699 233.46 195.559 234.521 195.559H256.271C257.332 195.559 258.192 194.699 258.192 193.638C258.192 192.577 257.332 191.717 256.271 191.717Z" fill="#E6E6E6"/>
<path d="M309.637 191.717H287.887C286.826 191.717 285.966 192.577 285.966 193.638C285.966 194.699 286.826 195.559 287.887 195.559H309.637C310.698 195.559 311.558 194.699 311.558 193.638C311.558 192.577 310.698 191.717 309.637 191.717Z" fill="#E6E6E6"/>
<path d="M237.807 200.709H234.307C233.246 200.709 232.386 201.569 232.386 202.63C232.386 203.691 233.246 204.552 234.307 204.552H237.807C238.868 204.552 239.728 203.691 239.728 202.63C239.728 201.569 238.868 200.709 237.807 200.709Z" fill="#E6E6E6"/>
<path d="M277.831 200.709H274.332C273.271 200.709 272.41 201.569 272.41 202.63C272.41 203.691 273.271 204.552 274.332 204.552H277.831C278.892 204.552 279.752 203.691 279.752 202.63C279.752 201.569 278.892 200.709 277.831 200.709Z" fill="#E6E6E6"/>
<path d="M289.171 200.709H285.672C284.611 200.709 283.751 201.569 283.751 202.63C283.751 203.691 284.611 204.552 285.672 204.552H289.171C290.232 204.552 291.093 203.691 291.093 202.63C291.093 201.569 290.232 200.709 289.171 200.709Z" fill="#E6E6E6"/>
<path d="M266.944 200.389H245.194C244.133 200.389 243.273 201.249 243.273 202.31C243.273 203.371 244.133 204.231 245.194 204.231H266.944C268.005 204.231 268.866 203.371 268.866 202.31C268.866 201.249 268.005 200.389 266.944 200.389Z" fill="#E6E6E6"/>
<path d="M320.31 200.389H298.56C297.499 200.389 296.639 201.249 296.639 202.31C296.639 203.371 297.499 204.231 298.56 204.231H320.31C321.371 204.231 322.231 203.371 322.231 202.31C322.231 201.249 321.371 200.389 320.31 200.389Z" fill="#E6E6E6"/>
<path d="M248.48 209.381H244.98C243.919 209.381 243.059 210.241 243.059 211.302C243.059 212.364 243.919 213.224 244.98 213.224H248.48C249.541 213.224 250.401 212.364 250.401 211.302C250.401 210.241 249.541 209.381 248.48 209.381Z" fill="#E6E6E6"/>
<path d="M288.504 209.381H285.005C283.944 209.381 283.084 210.241 283.084 211.302C283.084 212.364 283.944 213.224 285.005 213.224H288.504C289.565 213.224 290.426 212.364 290.426 211.302C290.426 210.241 289.565 209.381 288.504 209.381Z" fill="#E6E6E6"/>
<path d="M299.845 209.381H296.345C295.284 209.381 294.424 210.241 294.424 211.302C294.424 212.364 295.284 213.224 296.345 213.224H299.845C300.906 213.224 301.766 212.364 301.766 211.302C301.766 210.241 300.906 209.381 299.845 209.381Z" fill="#E6E6E6"/>
<path d="M277.618 209.061H255.867C254.806 209.061 253.946 209.921 253.946 210.982C253.946 212.043 254.806 212.903 255.867 212.903H277.618C278.679 212.903 279.539 212.043 279.539 210.982C279.539 209.921 278.679 209.061 277.618 209.061Z" fill="#E6E6E6"/>
<path d="M256.485 243.865H252.985C251.924 243.865 251.064 244.725 251.064 245.786C251.064 246.847 251.924 247.707 252.985 247.707H256.485C257.546 247.707 258.406 246.847 258.406 245.786C258.406 244.725 257.546 243.865 256.485 243.865Z" fill="#E6E6E6"/>
<path d="M267.825 243.865H264.325C263.264 243.865 262.404 244.725 262.404 245.786C262.404 246.847 263.264 247.707 264.325 247.707H267.825C268.886 247.707 269.746 246.847 269.746 245.786C269.746 244.725 268.886 243.865 267.825 243.865Z" fill="#E6E6E6"/>
<path d="M298.964 244.185H277.213C276.152 244.185 275.292 245.045 275.292 246.106C275.292 247.167 276.152 248.027 277.213 248.027H298.964C300.025 248.027 300.885 247.167 300.885 246.106C300.885 245.045 300.025 244.185 298.964 244.185Z" fill="#E6E6E6"/>
<path d="M216.46 243.865H212.961C211.9 243.865 211.04 244.725 211.04 245.786C211.04 246.847 211.9 247.707 212.961 247.707H216.46C217.521 247.707 218.381 246.847 218.381 245.786C218.381 244.725 217.521 243.865 216.46 243.865Z" fill="#E6E6E6"/>
<path d="M245.598 244.185H223.848C222.787 244.185 221.926 245.045 221.926 246.106C221.926 247.167 222.787 248.027 223.848 248.027H245.598C246.659 248.027 247.519 247.167 247.519 246.106C247.519 245.045 246.659 244.185 245.598 244.185Z" fill="#E6E6E6"/>
<path d="M227.134 235.193H223.634C222.573 235.193 221.713 236.053 221.713 237.114C221.713 238.175 222.573 239.035 223.634 239.035H227.134C228.195 239.035 229.055 238.175 229.055 237.114C229.055 236.053 228.195 235.193 227.134 235.193Z" fill="#E6E6E6"/>
<path d="M267.158 235.193H263.658C262.597 235.193 261.737 236.053 261.737 237.114C261.737 238.175 262.597 239.035 263.658 239.035H267.158C268.219 239.035 269.079 238.175 269.079 237.114C269.079 236.053 268.219 235.193 267.158 235.193Z" fill="#E6E6E6"/>
<path d="M278.498 235.193H274.999C273.938 235.193 273.078 236.053 273.078 237.114C273.078 238.175 273.938 239.035 274.999 239.035H278.498C279.559 239.035 280.419 238.175 280.419 237.114C280.419 236.053 279.559 235.193 278.498 235.193Z" fill="#E6E6E6"/>
<path d="M256.271 235.513H234.521C233.46 235.513 232.6 236.373 232.6 237.434C232.6 238.495 233.46 239.355 234.521 239.355H256.271C257.332 239.355 258.192 238.495 258.192 237.434C258.192 236.373 257.332 235.513 256.271 235.513Z" fill="#E6E6E6"/>
<path d="M237.807 226.521H234.307C233.246 226.521 232.386 227.381 232.386 228.442C232.386 229.503 233.246 230.363 234.307 230.363H237.807C238.868 230.363 239.728 229.503 239.728 228.442C239.728 227.381 238.868 226.521 237.807 226.521Z" fill="#E6E6E6"/>
<path d="M277.831 226.521H274.332C273.271 226.521 272.41 227.381 272.41 228.442C272.41 229.503 273.271 230.363 274.332 230.363H277.831C278.892 230.363 279.752 229.503 279.752 228.442C279.752 227.381 278.892 226.521 277.831 226.521Z" fill="#E6E6E6"/>
<path d="M289.171 226.521H285.672C284.611 226.521 283.751 227.381 283.751 228.442C283.751 229.503 284.611 230.363 285.672 230.363H289.171C290.232 230.363 291.093 229.503 291.093 228.442C291.093 227.381 290.232 226.521 289.171 226.521Z" fill="#E6E6E6"/>
<path d="M266.944 226.841H245.194C244.133 226.841 243.273 227.701 243.273 228.762C243.273 229.823 244.133 230.683 245.194 230.683H266.944C268.005 230.683 268.866 229.823 268.866 228.762C268.866 227.701 268.005 226.841 266.944 226.841Z" fill="#E6E6E6"/>
<path d="M248.48 217.849H244.98C243.919 217.849 243.059 218.709 243.059 219.77C243.059 220.831 243.919 221.691 244.98 221.691H248.48C249.541 221.691 250.401 220.831 250.401 219.77C250.401 218.709 249.541 217.849 248.48 217.849Z" fill="#E6E6E6"/>
<path d="M288.504 217.849H285.005C283.944 217.849 283.084 218.709 283.084 219.77C283.084 220.831 283.944 221.691 285.005 221.691H288.504C289.565 221.691 290.426 220.831 290.426 219.77C290.426 218.709 289.565 217.849 288.504 217.849Z" fill="#E6E6E6"/>
<path d="M299.845 217.849H296.345C295.284 217.849 294.424 218.709 294.424 219.77C294.424 220.831 295.284 221.691 296.345 221.691H299.845C300.906 221.691 301.766 220.831 301.766 219.77C301.766 218.709 300.906 217.849 299.845 217.849Z" fill="#E6E6E6"/>
<path d="M277.618 218.169H255.867C254.806 218.169 253.946 219.029 253.946 220.09C253.946 221.151 254.806 222.011 255.867 222.011H277.618C278.679 222.011 279.539 221.151 279.539 220.09C279.539 219.029 278.679 218.169 277.618 218.169Z" fill="#E6E6E6"/>
<path d="M233.417 368.418C233.271 368.491 233.124 368.564 232.977 368.631C232.05 369.091 231.116 369.545 230.175 369.992C227.36 371.333 224.51 372.607 221.623 373.814C214.029 376.991 206.237 379.671 198.296 381.839C196.962 373.521 195.668 353.902 194.427 339.473C194.193 336.758 193.96 334.23 193.726 331.995C193.505 329.062 193.083 326.147 192.466 323.27C192.405 323.045 192.318 322.827 192.205 322.623C192.332 323.777 192.466 327.219 192.592 331.995C192.659 334.23 192.719 336.758 192.786 339.473C193.099 353.362 193.426 372.26 193.753 383.02C192.826 383.247 191.892 383.474 190.958 383.687C190.371 383.827 189.777 383.96 189.184 384.087C188.463 384.247 187.743 384.407 187.022 384.554C186.268 384.714 185.515 384.868 184.761 385.014C172.443 387.434 159.918 388.65 147.365 388.643C146.531 388.643 145.704 388.637 144.87 388.63C144.616 388.63 144.363 388.623 144.103 388.617C143.369 388.603 142.608 388.59 141.835 388.57C127 388.16 112.262 386.035 97.9145 382.239L98.4948 339.473L98.5949 331.995L98.6349 329.16C98.3045 330.072 98.1068 331.027 98.0479 331.995C97.8144 333.816 97.5743 336.398 97.3341 339.473C96.4202 351.321 95.4797 370.432 94.5057 381.306C82.972 378.023 74.5402 375.028 64.0004 369.758C63.5935 369.558 63.1799 369.352 62.773 369.145C62.8464 368.631 62.9264 368.117 62.9998 367.59C64.1939 359.292 62.7864 348.492 64.1072 339.473C65.1145 332.516 66.1551 325.832 67.2024 320.161C68.4698 313.337 69.7572 307.974 71.0314 305.366C72.4989 302.357 73.9665 299.395 75.3874 296.56C76.0011 295.34 76.6037 294.141 77.1952 292.965C77.5154 292.331 77.8355 291.704 78.1491 291.09C79.5766 288.295 80.9241 285.714 82.1582 283.426C83.0254 281.818 83.8259 280.364 84.5597 279.09C85.4202 277.589 86.1807 276.348 86.8077 275.407C91.4392 268.387 98.3305 263.16 106.34 260.592L106.54 260.538L106.733 260.618L106.953 260.718L119.668 256.069L125.345 242.401L154.502 240.606L159.212 244.188L161.62 246.023L164.188 247.977L168.911 251.573L170.252 251.986L172.247 252.6L185.888 256.789L186.028 256.729L186.228 256.783C193.517 259.116 199.896 263.663 204.48 269.791C204.933 270.378 205.353 270.985 205.76 271.598C206.868 273.239 208.362 275.834 210.123 279.09C210.85 280.431 211.617 281.885 212.424 283.426C212.911 284.353 217.114 297.468 221.203 310.862C225.025 323.403 228.748 336.191 229.235 339.473C229.321 340.08 229.415 340.694 229.502 341.301C230.055 345.097 230.602 348.919 231.129 352.648C231.91 358.178 232.67 363.515 233.397 368.284C233.404 368.331 233.411 368.371 233.417 368.418Z" fill="#3F3D56"/>
<path opacity="0.2" d="M202.517 320.131L196.849 298.256L191.844 317.132L202.517 320.131Z" fill="#333333"/>
<path d="M10.5593 319.877C10.8532 320.733 11.4107 321.473 12.1517 321.993C12.8928 322.512 13.7793 322.782 14.6839 322.766L32.3559 322.312C33.2671 322.294 34.1482 321.982 34.8673 321.422C35.5864 320.862 36.105 320.084 36.3456 319.205L38.8464 292.464C39.7336 292.866 40.6995 293.064 41.6734 293.045C43.3821 293.002 45.0038 292.282 46.1817 291.043C47.3597 289.805 47.9973 288.149 47.9544 286.44C47.9115 284.731 47.1916 283.11 45.953 281.932C44.7144 280.754 43.0587 280.116 41.3499 280.159C40.9607 280.158 40.5724 280.198 40.1917 280.28C39.7778 279.832 39.2746 279.475 38.7146 279.234C38.1546 278.992 37.5503 278.871 36.9404 278.877L9.75677 279.579C9.53127 279.587 9.30692 279.615 9.08623 279.662C8.4901 279.773 7.92469 280.011 7.42806 280.359C6.93142 280.706 6.51508 281.157 6.20707 281.679C5.89907 282.202 5.70654 282.784 5.64244 283.387C5.57834 283.99 5.64416 284.6 5.83547 285.175L10.5593 319.877ZM39.3592 290.648L41.1387 284.276C41.3411 283.54 41.3458 282.763 41.1523 282.025C41.2386 282.024 41.3148 281.983 41.4012 281.983C42.6213 281.958 43.8017 282.418 44.6835 283.261C45.5652 284.105 46.0765 285.264 46.105 286.484C46.1336 287.704 45.6772 288.886 44.8359 289.77C43.9946 290.654 42.837 291.168 41.617 291.2C40.8282 291.225 40.0476 291.034 39.3592 290.648Z" fill="#2F2E41"/>
<path d="M9.08624 279.662C9.66538 282.973 16.1766 285.301 24.0059 284.896C31.2055 284.565 37.0922 282.037 38.1707 279.041C37.7716 278.922 37.3565 278.867 36.9404 278.877L9.75678 279.578C9.53128 279.587 9.30693 279.615 9.08624 279.662Z" fill="#3F3D56"/>
<path d="M25.4408 305.183C25.4766 305.174 25.5107 305.159 25.5415 305.138L29.3793 302.626C29.4257 302.596 29.4638 302.555 29.4902 302.506C29.5166 302.457 29.5304 302.403 29.5304 302.347C29.5305 302.292 29.5167 302.238 29.4903 302.189C29.464 302.14 29.4259 302.099 29.3795 302.068L25.3905 299.456C25.3539 299.432 25.3129 299.415 25.2698 299.406C25.2267 299.398 25.1824 299.398 25.1394 299.407C25.0964 299.416 25.0556 299.433 25.0192 299.458C24.9829 299.483 24.9519 299.514 24.9278 299.551C24.9037 299.588 24.8871 299.629 24.879 299.672C24.8709 299.715 24.8713 299.759 24.8804 299.802C24.8894 299.845 24.9068 299.886 24.9317 299.922C24.9565 299.958 24.9882 299.989 25.025 300.013L28.5878 302.347L25.1764 304.58C25.1104 304.623 25.0617 304.689 25.0393 304.764C25.0168 304.84 25.0218 304.921 25.0535 304.993C25.0853 305.066 25.1416 305.124 25.2125 305.159C25.2834 305.194 25.3643 305.202 25.4408 305.183H25.4408Z" fill="#6933DC"/>
<path d="M19.3793 305.462C19.4437 305.446 19.5018 305.411 19.5461 305.361C19.5904 305.312 19.6188 305.25 19.6279 305.184C19.6369 305.118 19.6261 305.051 19.5968 304.992C19.5675 304.932 19.521 304.883 19.4634 304.85L15.9259 302.821L19.345 300.282C19.3802 300.256 19.4098 300.223 19.4323 300.185C19.4547 300.148 19.4696 300.106 19.476 300.063C19.4824 300.019 19.4801 299.975 19.4695 299.933C19.4588 299.89 19.4399 299.851 19.4138 299.815C19.3877 299.78 19.3549 299.751 19.3173 299.728C19.2798 299.706 19.2382 299.691 19.1948 299.684C19.1515 299.678 19.1074 299.68 19.065 299.691C19.0225 299.702 18.9826 299.721 18.9475 299.747L15.1194 302.59C15.0749 302.623 15.0393 302.667 15.0159 302.717C14.9924 302.767 14.9819 302.822 14.9851 302.877C14.9884 302.933 15.0054 302.986 15.0345 303.033C15.0637 303.08 15.1041 303.12 15.1522 303.147L19.1314 305.428C19.2065 305.471 19.2954 305.483 19.3793 305.462Z" fill="#6933DC"/>
<path d="M25.0591 307.384C25.0914 307.376 25.1222 307.363 25.1505 307.345C25.188 307.323 25.2206 307.293 25.2465 307.257C25.2724 307.222 25.291 307.182 25.3014 307.139C25.3118 307.097 25.3137 307.053 25.307 307.009C25.3002 306.966 25.285 306.925 25.2623 306.887L19.822 297.943C19.7757 297.868 19.7016 297.814 19.6158 297.793C19.53 297.773 19.4395 297.787 19.3641 297.833C19.2888 297.879 19.2347 297.952 19.2136 298.038C19.1926 298.124 19.2064 298.214 19.252 298.29L24.6923 307.234C24.7294 307.295 24.7851 307.343 24.8511 307.37C24.9171 307.396 24.99 307.402 25.0591 307.384Z" fill="#6933DC"/>
<path d="M523.753 369.143C523.346 369.35 522.932 369.557 522.525 369.757C511.986 375.027 503.554 378.022 492.02 381.304C491.046 370.431 490.105 351.319 489.192 339.472C488.951 336.397 488.711 333.815 488.478 331.994C488.419 331.026 488.221 330.071 487.891 329.159L487.931 331.994L488.031 339.472L488.611 382.238C474.264 386.034 459.526 388.158 444.691 388.568C443.917 388.589 443.157 388.602 442.423 388.615C442.163 388.622 441.909 388.629 441.656 388.629C440.822 388.635 439.995 388.642 439.161 388.642C423.528 388.653 407.951 386.765 392.773 383.018C393.1 372.259 393.426 353.36 393.74 339.472C393.807 336.757 393.867 334.229 393.933 331.994C394.06 327.218 394.194 323.776 394.32 322.622C394.208 322.826 394.121 323.043 394.06 323.269C393.442 326.145 393.021 329.06 392.799 331.994C392.566 334.229 392.332 336.757 392.099 339.472C390.858 353.901 389.564 373.519 388.23 381.838C380.289 379.67 372.497 376.989 364.902 373.813C360.9 372.145 356.969 370.346 353.108 368.416C353.842 363.613 354.609 358.23 355.397 352.647C356.01 348.317 356.644 343.868 357.291 339.472C358.292 332.681 392.286 259.35 400.297 256.781L400.497 256.728L400.637 256.788L414.279 252.599L416.274 251.985L417.615 251.571L422.337 247.976L424.906 246.021L427.314 244.187L432.023 240.605L461.181 242.399L466.858 256.068L479.572 260.717L479.793 260.617L479.986 260.537L480.186 260.59C488.195 263.158 495.086 268.385 499.718 275.406C500.345 276.347 501.106 277.587 501.966 279.088C502.7 280.362 503.5 281.817 504.368 283.424C505.602 285.712 506.949 288.294 508.377 291.089C508.69 291.703 509.01 292.33 509.331 292.963C509.924 294.137 510.527 295.336 511.138 296.559C512.559 299.394 514.027 302.356 515.494 305.364C516.768 307.973 518.056 313.336 519.323 320.16C520.371 325.83 521.411 332.514 522.419 339.472C523.739 348.491 522.332 359.291 523.526 367.589C523.599 368.116 523.679 368.63 523.753 369.143Z" fill="#3F3D56"/>
<path d="M438.237 235.698C456.966 235.698 472.149 220.516 472.149 201.787C472.149 183.058 456.966 167.875 438.237 167.875C419.508 167.875 404.326 183.058 404.326 201.787C404.326 220.516 419.508 235.698 438.237 235.698Z" fill="#FFB6B6"/>
<path opacity="0.2" d="M384.007 320.131L389.675 298.256L394.681 317.132L384.007 320.131Z" fill="#333333"/>
<path d="M534.84 305.878C532.812 333.815 534.913 346.116 523.719 369.15C513.535 374.135 502.927 378.202 492.02 381.304C490.886 381.624 489.75 381.936 488.611 382.238C474.264 386.034 459.526 388.158 444.691 388.569C443.917 388.589 443.157 388.602 442.423 388.615C442.163 388.622 441.909 388.629 441.656 388.629C440.822 388.635 439.995 388.642 439.161 388.642C423.528 388.654 407.951 386.765 392.773 383.019C391.252 382.645 389.738 382.251 388.23 381.838C380.289 379.67 372.497 376.989 364.902 373.813C360.9 372.145 356.969 370.346 353.108 368.416C352.235 367.976 351.361 367.536 350.5 367.082C346.078 359.304 343.563 349.845 343.509 338.478C346.571 318.893 528.075 288.988 534.84 305.878Z" fill="#2F2E41"/>
<path opacity="0.2" d="M534.834 310.662C534.938 308.933 535.054 307.146 535.189 305.286C528.425 288.395 346.92 318.3 343.858 337.886C343.867 339.681 343.944 341.424 344.073 343.125C351.488 323.795 523.919 295.372 534.834 310.662Z" fill="#333333"/>
<path d="M338.995 307.196L353.894 299.747L341.478 266.226L338.207 249.321C337.781 247.124 336.787 245.078 335.324 243.386C333.86 241.695 331.978 240.417 329.866 239.68C327.753 238.944 325.485 238.774 323.287 239.189C321.088 239.604 319.037 240.589 317.339 242.045C314.822 244.202 313.242 247.253 312.931 250.553C312.621 253.854 313.605 257.146 315.676 259.734L327.822 274.916L338.995 307.196Z" fill="#FFB6B6"/>
<path d="M353.894 293.539L334.029 303.471L349.104 350.706C350.187 354.098 352.127 357.153 354.738 359.574C357.348 361.995 360.54 363.701 364.004 364.525C368.275 365.542 372.758 365.173 376.805 363.47C380.851 361.767 384.25 358.82 386.509 355.055L426.484 286.537C429.316 281.816 430.191 276.174 428.92 270.816C427.649 265.459 424.334 260.811 419.682 257.865C417.18 256.281 414.373 255.241 411.443 254.813C408.513 254.385 405.525 254.579 402.675 255.383C399.825 256.186 397.175 257.58 394.9 259.475C392.624 261.37 390.773 263.723 389.466 266.38L365.067 318.37L353.894 293.539Z" fill="#3F3D56"/>
<path d="M139.757 233.358C160.364 233.358 177.07 216.653 177.07 196.045C177.07 175.438 160.364 158.733 139.757 158.733C119.15 158.733 102.444 175.438 102.444 196.045C102.444 216.653 119.15 233.358 139.757 233.358Z" fill="#A0616A"/>
<path d="M102.892 170.332C105.926 166.243 110.287 163.336 113.622 159.489C115.452 157.378 116.972 154.987 119.029 153.097C122.852 149.586 128.198 148.148 133.385 147.969C139.07 147.823 144.709 149.017 149.846 151.455C154.984 153.893 159.475 157.507 162.957 162.003C165.668 160.413 168.38 158.824 171.091 157.234C172.162 160.053 173.233 162.873 174.305 165.692C175.184 164.928 176.305 164.5 177.47 164.483C178.634 164.467 179.767 164.864 180.667 165.603C181.568 166.342 182.177 167.376 182.388 168.521C182.598 169.667 182.397 170.85 181.818 171.861C182.463 169.867 185.42 169.444 187.05 170.761C188.68 172.079 189.116 174.422 188.85 176.501C188.517 178.782 187.508 180.91 185.955 182.613C184.402 184.316 182.375 185.516 180.135 186.058C176.597 186.846 172.479 186.018 169.647 188.281C167.377 190.095 166.691 193.398 164.374 195.152C161.519 197.314 157.484 196.314 153.935 196.792C147.726 197.628 142.809 203.978 143.555 210.199C142.993 208.236 142.403 206.216 141.128 204.622C139.853 203.027 137.705 201.949 135.75 202.535C132.517 203.504 131.988 207.91 132.772 211.193C134.85 219.898 142.724 233.969 142.724 233.969C132.499 238.003 120.318 234.189 112.429 226.535C104.54 218.882 100.431 208.045 98.6413 197.2C97.1236 188.004 97.3387 177.818 102.892 170.332Z" fill="#2F2E41"/>
<path d="M480.735 220.481C487.834 204.205 483.812 189.228 475.158 181.283V181.277C471.756 173.652 467.233 167.768 462.057 166.388C459.555 164.78 457.127 162.892 454.432 161.932C453.177 161.462 451.839 161.251 450.5 161.311C449.161 161.372 447.848 161.703 446.641 162.285L445.267 161.918C444.099 158.936 442.732 158.876 441.211 160.838C435.354 158.109 430.077 156.888 425.381 156.888C410.065 156.888 401.006 169.856 398.605 185.533L411.406 188.941L415.855 181.85L413.801 189.582L420.865 191.456C431.618 205.458 418.75 237.758 402.441 255.729C406.323 254.655 410.19 253.748 414.041 253.007L428.036 232.488L419.364 251.166C423.867 250.506 429.61 251.139 435.888 252.413C438.002 249.652 439.116 245.97 438.022 242.688C439.811 246.149 441.044 249.87 441.678 253.714C454.926 256.95 472.997 258.611 482.736 259.838C490.605 257.269 490.626 228.259 480.735 220.481Z" fill="#2F2E41"/>
<path d="M485.353 165.119C490.553 176.762 480.061 181.769 470.45 181.628C461.765 181.5 454.384 175.399 453.941 166.725C453.728 162.559 455.179 158.48 457.974 155.384C460.769 152.288 464.679 150.429 468.844 150.216C477.519 149.772 481.812 157.188 485.353 165.119Z" fill="#2F2E41"/>
<path d="M244.137 354.647L235.572 340.361L264.05 318.756L275.891 306.255C277.429 304.63 279.367 303.438 281.51 302.798C283.654 302.157 285.928 302.09 288.105 302.603C290.282 303.117 292.287 304.193 293.918 305.723C295.549 307.254 296.75 309.186 297.401 311.327C298.365 314.498 298.059 317.921 296.548 320.871C295.037 323.822 292.438 326.07 289.301 327.141L270.901 333.422L244.137 354.647Z" fill="#A0616A"/>
<path d="M250.328 354.176L236.993 365.289L233.397 368.284L232.977 368.631C232.05 369.091 231.116 369.545 230.175 369.992C227.36 371.333 224.51 372.607 221.623 373.814C214.029 376.991 206.237 379.671 198.296 381.839C196.788 382.253 195.274 382.646 193.753 383.02C192.826 383.247 191.892 383.474 190.958 383.687C190.371 383.827 189.777 383.961 189.184 384.087C188.463 384.247 187.743 384.407 187.022 384.554C186.268 384.714 185.515 384.868 184.761 385.014C182.733 383.085 181.118 380.762 180.015 378.189C178.911 375.616 178.343 372.845 178.344 370.045C178.344 369.865 178.344 369.678 178.35 369.492L180.492 314.571L181.439 290.23C181.585 284.725 183.878 279.496 187.828 275.659C191.778 271.823 197.072 269.683 202.578 269.697C203.219 269.697 203.853 269.731 204.48 269.791C204.933 270.378 205.353 270.985 205.76 271.599C206.868 273.24 208.362 275.834 210.123 279.09C210.85 280.431 211.617 281.885 212.424 283.426C212.911 284.353 217.114 297.468 221.203 310.863L219.402 324.851L216.147 350.066L229.502 341.301L238.907 335.124L240.021 336.985L242.923 341.828L248.527 351.167L250.328 354.176Z" fill="#3F3D56"/>
<path d="M243.016 338.48C243.01 339.614 242.983 340.728 242.923 341.828C242.784 344.864 242.432 347.887 241.869 350.874C240.948 355.889 239.306 360.745 236.993 365.289C236.686 365.896 236.359 366.497 236.026 367.084C235.165 367.537 234.291 367.978 233.417 368.418C233.27 368.491 233.124 368.565 232.977 368.631C229.261 370.479 225.477 372.207 221.623 373.815C214.029 376.991 206.237 379.671 198.296 381.839C196.788 382.253 195.274 382.647 193.753 383.02C190.785 383.754 187.787 384.419 184.761 385.015C172.443 387.435 159.918 388.65 147.365 388.644C146.531 388.644 145.704 388.637 144.87 388.63C144.616 388.63 144.363 388.624 144.103 388.617C143.369 388.604 142.608 388.59 141.835 388.57C126.999 388.16 112.262 386.036 97.9145 382.24C96.7738 381.939 95.6375 381.628 94.5057 381.306C83.5993 378.204 72.9909 374.136 62.8063 369.152C51.6128 346.118 53.7141 333.817 51.6862 305.88C55.8488 295.48 126.272 302.824 180.492 314.572C195.207 317.76 208.722 321.276 219.402 324.851C230.435 328.54 238.434 332.289 241.569 335.811C242.301 336.54 242.805 337.468 243.016 338.48Z" fill="#2F2E41"/>
<path opacity="0.2" d="M51.6901 310.662C51.5865 308.933 51.4707 307.146 51.3357 305.286C58.0998 288.395 239.604 318.3 242.666 337.886C242.658 339.681 242.581 341.424 242.452 343.125C235.037 323.795 62.6052 295.372 51.6901 310.662Z" fill="#333333"/>
</g>
<path d="M110.901 113.811L112.901 114.328C115.024 114.878 116.298 117.044 115.749 119.167L115.218 121.216C114.668 123.341 112.502 124.615 110.379 124.066L108.379 123.549C106.256 122.998 104.982 120.833 105.531 118.71L106.062 116.659C106.612 114.536 108.779 113.261 110.901 113.811ZM128.671 58.9133C133.864 60.26 137.311 63.1391 139.013 67.5532C140.37 71.0397 140.536 74.7656 139.509 78.7293C137.792 85.3569 133.159 90.8841 125.607 95.3081C122.974 96.8489 121.231 98.9858 120.377 101.719C120.069 102.624 119.769 103.638 119.478 104.767C118.928 106.889 116.761 108.165 114.639 107.614L112.64 107.097C110.518 106.548 109.242 104.381 109.791 102.259C111.357 96.2102 114.007 92.1034 117.741 89.9353C121.775 87.5873 124.823 84.8966 126.887 81.8576C128.074 80.0874 128.947 78.1261 129.504 75.9721C130.079 73.753 130.035 71.8823 129.371 70.36C128.658 68.6082 127.224 67.5985 125.07 67.3337C123.06 67.0674 121.31 68.0531 119.819 70.2934C119.744 70.4024 119.67 70.5129 119.598 70.6262C118.536 72.2831 116.412 72.9019 114.62 72.0876L112.866 71.2875C110.692 70.2962 109.87 67.6197 111.127 65.5876C112.373 63.5681 113.94 61.8943 115.83 60.5645C117.879 59.1271 120.411 58.361 123.426 58.2661C125.009 58.2024 126.758 58.4191 128.671 58.9133Z" fill="#6933DC"/>
<path d="M45.7896 178.786L48.5902 178.009C51.5638 177.185 54.6415 178.929 55.4655 181.903L56.2601 184.774C57.0851 187.749 55.3414 190.827 52.3677 191.651L49.5672 192.428C46.5926 193.25 43.5158 191.508 42.6918 188.534L41.8962 185.662C41.0722 182.688 42.815 179.609 45.7896 178.786ZM28.8186 99.3802C36.0948 97.3676 42.3211 98.451 47.5014 102.633C51.6079 105.927 54.4313 110.351 55.969 115.904C58.5405 125.189 56.7826 135.185 50.6915 145.89C48.5673 149.62 47.9464 153.451 48.8288 157.383C49.091 158.702 49.4385 160.149 49.8772 161.729C50.7011 164.703 48.9584 167.782 45.9838 168.605L43.185 169.381C40.2113 170.205 37.1319 168.462 36.3079 165.488C33.961 157.015 34.3004 150.146 37.3259 144.876C40.5891 139.177 42.4116 133.753 42.7878 128.597C42.9886 125.605 42.6734 122.6 41.8361 119.584C40.9754 116.475 39.6057 114.226 37.7251 112.838C35.6245 111.204 33.1658 110.983 30.3545 112.176C27.7182 113.265 26.2786 115.698 26.0376 119.477C26.0229 119.663 26.0108 119.85 26.0025 120.038C25.8739 122.805 23.7206 125.054 20.9645 125.322L18.2633 125.581C14.9167 125.903 12.0325 123.219 12.1334 119.858C12.2313 116.521 12.964 113.378 14.3307 110.428C15.8166 107.234 18.3633 104.519 21.9708 102.282C23.8554 101.091 26.1393 100.124 28.8186 99.3802Z" fill="#DCDCF3"/>
<path d="M521.994 176.568L526.503 177.733C531.29 178.972 534.164 183.858 532.925 188.645L531.727 193.266C530.488 198.057 525.602 200.931 520.815 199.692L516.306 198.526C511.519 197.284 508.645 192.401 509.884 187.614L511.082 182.99C512.321 178.203 517.207 175.326 521.994 176.568ZM562.065 52.7704C573.776 55.8074 581.548 62.2997 585.387 72.2537C588.446 80.116 588.82 88.5179 586.505 97.4564C582.634 112.402 572.185 124.866 555.155 134.842C549.218 138.317 545.287 143.136 543.361 149.299C542.668 151.34 541.991 153.626 541.333 156.171C540.094 160.958 535.208 163.835 530.421 162.593L525.915 161.428C521.128 160.189 518.251 155.303 519.49 150.516C523.022 136.876 528.997 127.615 537.418 122.726C546.513 117.431 553.389 111.364 558.041 104.511C560.718 100.519 562.688 96.096 563.943 91.2388C565.239 86.2346 565.14 82.0161 563.643 78.5831C562.036 74.6328 558.801 72.3559 553.944 71.7587C549.413 71.1583 545.466 73.381 542.103 78.433C541.934 78.6789 541.768 78.928 541.605 79.1835C539.21 82.9198 534.419 84.3154 530.38 82.4791L526.423 80.6748C521.521 78.4394 519.669 72.4038 522.501 67.8212C525.312 63.2673 528.847 59.4927 533.107 56.494C537.728 53.2527 543.438 51.525 550.237 51.311C553.807 51.1673 557.751 51.6559 562.065 52.7704Z" fill="#DCDCF3"/>
<path d="M454.27 61.2386L456.335 61.2203C458.528 61.2016 460.32 62.9646 460.338 65.1573L460.356 67.2741C460.375 69.4681 458.612 71.26 456.419 71.2787L454.354 71.297C452.161 71.3143 450.369 69.5526 450.351 67.36L450.333 65.2418C450.314 63.0491 452.077 61.2559 454.27 61.2386ZM457.225 3.61194C462.59 3.56876 466.665 5.45755 469.451 9.28069C471.664 12.2973 472.788 15.8533 472.823 19.9478C472.88 26.7937 469.835 33.3318 463.685 39.5598C461.541 41.7294 460.41 44.2447 460.293 47.1058C460.23 48.0594 460.202 49.1165 460.213 50.2822C460.231 52.4749 458.469 54.2681 456.276 54.2855L454.212 54.3033C452.019 54.322 450.226 52.5594 450.207 50.3667C450.155 44.1191 451.651 39.4665 454.697 36.4057C457.985 33.0939 460.234 29.7058 461.44 26.2363C462.128 24.2193 462.465 22.0986 462.445 19.874C462.426 17.5817 461.899 15.7861 460.864 14.4875C459.722 12.9798 458.075 12.3758 455.926 12.6775C453.916 12.9404 452.481 14.3455 451.62 16.8954C451.576 17.0202 451.533 17.1459 451.493 17.2741C450.896 19.1494 449.004 20.2969 447.063 19.974L445.161 19.6553C442.805 19.2604 441.319 16.8877 442.006 14.5997C442.687 12.3265 443.768 10.3039 445.249 8.53054C446.856 6.61178 449.104 5.2164 451.991 4.34443C453.504 3.8731 455.249 3.62972 457.225 3.61194Z" fill="#6933DC"/>
<defs>
<clipPath id="clip0_102_289">
<rect width="587.132" height="384.416" fill="white" transform="translate(0 4.22705)"/>
</clipPath>
</defs>
</svg>
